<?xml version="1.0" encoding="utf-8"?>
<!-- Generator: Adobe Illustrator 15.1.0, SVG Export Plug-In . SVG Version: 6.00 Build 0)  -->
<!DOCTYPE svg PUBLIC "-//W3C//DTD SVG 1.1//EN" "http://www.w3.org/Graphics/SVG/1.1/DTD/svg11.dtd">
<svg version="1.1" id="Layer_1" xmlns="http://www.w3.org/2000/svg" xmlns:xlink="http://www.w3.org/1999/xlink" x="0px" y="0px"
	 width="116px" height="142px" viewBox="0 0 116 142" enable-background="new 0 0 116 142" xml:space="preserve">
<g>
	<g>
		<path fill="#FFFFFF" d="M24.86,15.94C31.55,9.85,40.01,5.61,48.94,4.05c6.06-0.09,12.13-0.1,18.19,0
			c8.88,1.6,17.3,5.77,23.95,11.85c2.33,1.27,4.05,3.29,5.39,5.54c6.44,6.6,9.7,15.58,11.48,24.46c0.04,5.68,0.21,11.37-0.09,17.03
			c-4.23,14.69-12.12,28-20.68,40.56C79.59,114.45,71.42,125,62.8,135.17c-1.61,1.94-4.14,3.75-6.75,2.5
			c-2.34-1.85-4.5-4.01-6.1-6.53c-10.05-11.43-18.74-24.02-27.16-36.71c-5.88-9.97-11.55-20.26-14.65-31.49
			c-0.3-5.68-0.13-11.4-0.09-17.09c1.8-8.87,5.06-17.83,11.49-24.42C20.87,19.21,22.55,17.19,24.86,15.94z M12.69,40.42
			c-2.57,6.89-1.65,14.35-1.54,21.53c1.66,4.87,2.96,9.92,5.53,14.42c8.38,17.94,20.47,33.8,32.61,49.32
			c3.17,3.03,5.19,7.06,8.76,9.71c3.58-2.91,5.81-7.01,9.09-10.21c9.81-12.71,19.55-25.54,27.54-39.5
			c3.96-7.99,8.41-15.88,10.28-24.67c0.08-4.68,0.12-9.38-0.01-14.06c-0.86-4.43-2.21-8.77-3.92-12.94
			C94.64,20.09,81.18,9.75,66.07,7.07c-5.38-0.14-10.78-0.13-16.17,0C32.61,10.16,17.33,23.33,12.69,40.42z"/>
	</g>
	<path fill="#FFFFFF" d="M57.66,14.94c5.32,12.17,6.58,25.87,5.32,39.02c6.54-8.83,15-16.31,24.96-21.06
		c-3.96,11.65-11.43,21.92-21.11,29.49c8.97-3.29,18.75-3.92,28.15-2.44C87.17,65.57,77.6,68.66,68,68.92
		c5.62,2.02,11.18,4.65,15.48,8.89c-8.88,0.3-17.71-2.18-25.23-6.87c-0.36,4.54,0.41,9.03,1.56,13.4c-1.19-0.28-1.91-1-2.15-2.18
		c-1.13-3.57-1.05-7.37-0.95-11.08c-7.39,4.68-16.14,7.05-24.89,6.71c4.37-4.04,9.73-6.79,15.3-8.78c-9.2-0.74-18.44-3.5-25.91-9.05
		c8.91-1.51,18.1-0.76,26.73,1.85c-9.73-7.13-16.67-17.57-20.7-28.85c9.8,4.53,18.04,11.92,24.57,20.44
		C50.32,40.34,52.58,27.02,57.66,14.94z"/>
</g>
<g>
	<g>
		<path fill="#A1CD3A" d="M12.69,40.42C17.33,23.33,32.61,10.16,49.9,7.07c5.39-0.13,10.79-0.14,16.17,0
			c15.11,2.68,28.57,13.02,34.96,26.95c1.71,4.17,3.06,8.51,3.92,12.94c0.13,4.68,0.09,9.38,0.01,14.06
			c-1.87,8.79-6.32,16.68-10.28,24.67c-7.99,13.96-17.73,26.79-27.54,39.5c-3.28,3.2-5.51,7.3-9.09,10.21
			c-3.57-2.65-5.59-6.68-8.76-9.71c-12.14-15.52-24.23-31.38-32.61-49.32c-2.57-4.5-3.87-9.55-5.53-14.42
			C11.04,54.77,10.12,47.31,12.69,40.42z M57.66,14.94c-5.08,12.08-7.34,25.4-5.85,38.46c-6.53-8.52-14.77-15.91-24.57-20.44
			c4.03,11.28,10.97,21.72,20.7,28.85c-8.63-2.61-17.82-3.36-26.73-1.85c7.47,5.55,16.71,8.31,25.91,9.05
			c-5.57,1.99-10.93,4.74-15.3,8.78c8.75,0.34,17.5-2.03,24.89-6.71c-0.1,3.71-0.18,7.51,0.95,11.08c0.24,1.18,0.96,1.9,2.15,2.18
			c-1.15-4.37-1.92-8.86-1.56-13.4c7.52,4.69,16.35,7.17,25.23,6.87c-4.3-4.24-9.86-6.87-15.48-8.89c9.6-0.26,19.17-3.35,26.98-8.97
			c-9.4-1.48-19.18-0.85-28.15,2.44c9.68-7.57,17.15-17.84,21.11-29.49c-9.96,4.75-18.42,12.23-24.96,21.06
			C64.24,40.81,62.98,27.11,57.66,14.94z"/>
	</g>
</g>
<g opacity="0.33">
	<path fill="#808080" d="M87.18,103.49c7.32-0.21,15.05-1.81,22.05,1.15c2.97,0.8,2.18,5.21-0.32,6.22
		c-14.29,9.99-30.73,16.27-46.11,24.31C71.42,125,79.59,114.45,87.18,103.49z"/>
</g>
</svg>
